<svg width="55" height="61" viewBox="0 0 55 61" fill="none" xmlns="http://www.w3.org/2000/svg">
<path d="M10.1016 0C21.8873 12.7941 31.7092 20.4705 47.7041 29.2842L47.6328 29.9385C46.9723 36.574 48.7478 39.4572 55 46.3428L42.9336 58C37.6021 52.5982 35.0766 51.7448 28.9033 52.5977L28.6484 51.9854C23.2031 39.12 11.6016 26.5345 0 14.5C2.88621e-06 11.657 6.45352 0.5695 10.1016 0ZM9.79395 1.13867C9.61821 1.21973 9.41674 1.33517 9.18945 1.49219C8.73625 1.80533 8.23591 2.24725 7.70605 2.79883C6.64648 3.90186 5.536 5.37396 4.52246 6.94043C3.51095 8.50379 2.61416 10.1313 1.97461 11.5303C1.65464 12.2302 1.40521 12.8606 1.2373 13.3877C1.13962 13.6944 1.07827 13.9448 1.04199 14.1406C12.4861 26.0221 24.0372 38.5928 29.5322 51.5088C32.2965 51.1764 34.4719 51.2182 36.5879 52.0176C38.669 52.8039 40.5897 54.2853 42.9443 56.5986L53.6113 46.2939C50.7534 43.1122 48.8179 40.6932 47.7041 38.2246C46.5564 35.6807 46.3068 33.1571 46.6377 29.8359C31.0864 21.2122 21.3239 13.5842 9.79395 1.13867Z" fill="white"/>
<path d="M41.2882 24.1664L43.8086 25.6459C45.4869 25.0789 46.8976 24.6871 48.4798 24.6871C50.7174 24.6871 52.3957 27.2384 54.3536 25.5375C56.3115 23.8367 53.3664 21.8523 51.5565 19.0174C50.6516 17.6 50.4377 13.0643 47.361 14.7652C45.336 15.8847 46.8016 17.6 46.2422 19.8679C45.6828 22.1358 42.7799 23.316 41.2882 24.1664Z" fill="white"/>
<path d="M29.7397 9.94598C28.346 10.0637 27.2224 10.513 24.5941 12.4973C23.8397 11.8722 22.9046 11.0735 22.1604 10.4255C22.7471 9.94598 27.5021 7.39464 28.6209 5.69374C29.8611 3.80829 28.3412 0.307563 30.8585 0.0240804C33.3759 -0.259403 32.5367 2.00846 33.9353 4.27632C35.3338 6.54419 38.4105 9.09554 36.7323 11.0799C35.0541 13.0643 33.0962 9.6625 29.7397 9.94598Z" fill="white"/>
<path d="M25.6882 49.0666C25.1974 48.095 24.6742 47.125 24.1213 46.157C23.3066 47.9327 21.3486 51.9015 19.9501 51.9015C18.5516 51.9015 15.1952 51.618 14.0764 52.7519C12.9575 53.8858 12.6778 54.7363 17.4328 57.0042C22.1877 59.272 20.7892 61.2564 23.5863 60.9729C26.3833 60.6894 23.3066 55.5867 23.5862 53.8858C23.8659 52.1849 25.6882 49.0666 25.6882 49.0666Z" fill="white"/>
<path d="M13.9249 31.7742C13.271 30.9833 12.6057 30.1941 11.9308 29.4068C10.4402 31.4907 9.3214 34.042 7.36348 34.8925C5.40556 35.7429 2.02918 35.0088 1.21001 36.8769C0.0912004 39.4282 3.72734 39.4282 5.40556 40.5621C7.08377 41.6961 9.3214 45.3814 11.559 43.9639C13.7966 42.5465 10.4402 38.8612 10.9996 36.8769C11.4471 35.2894 13.043 32.7191 13.9249 31.7742Z" fill="white"/>
</svg>
