<svg width="61" height="62" viewBox="0 0 61 62" fill="none" xmlns="http://www.w3.org/2000/svg">
<path fill-rule="evenodd" clip-rule="evenodd" d="M0.394024 0L0.0620117 1.23909L22.062 7.13397L22.3659 6L11.9736 0H0.394024Z" fill="white"/>
<path fill-rule="evenodd" clip-rule="evenodd" d="M16.4433 52.3522C15.4144 50.7552 14.6804 48.9504 14.3183 47.0146L10.5068 61.2391H14.062L16.4433 52.3522Z" fill="white"/>
<path fill-rule="evenodd" clip-rule="evenodd" d="M41.6808 52.3521L44.062 61.2391H47.6171L43.8057 47.0146C43.4436 48.9504 42.7096 50.7552 41.6808 52.3521Z" fill="white"/>
<path fill-rule="evenodd" clip-rule="evenodd" d="M46.7444 34.0176C52.079 32.5882 56.1139 30.3483 55.7566 29.0146C55.3992 27.6809 50.7849 27.7586 45.4503 29.188C42.3121 30.0288 39.6237 31.1502 38.0146 32.2025C39.1162 33.0232 40.1013 33.9915 40.9405 35.0781C42.6125 34.9412 44.6214 34.5865 46.7444 34.0176Z" fill="white"/>
<path fill-rule="evenodd" clip-rule="evenodd" d="M11.3798 34.0176C13.5028 34.5865 15.5116 34.9412 17.1835 35.0782C18.0228 33.9915 19.0079 33.0232 20.1095 32.2025C18.5004 31.1502 15.812 30.0288 12.6739 29.188C7.33925 27.7586 2.72496 27.6809 2.36761 29.0146C2.01025 30.3483 6.04516 32.5882 11.3798 34.0176Z" fill="white"/>
<path d="M42.0622 44.239C42.0621 37.0594 36.2418 31.239 29.0621 31.239C21.8825 31.239 16.0622 37.0594 16.0621 44.239C16.0621 51.4188 21.8824 57.2391 29.0621 57.2391V58.2391C21.3301 58.2391 15.0621 51.9711 15.0621 44.239C15.0622 36.5071 21.3302 30.239 29.0621 30.239C36.7941 30.239 43.0621 36.5071 43.0622 44.239C43.0622 51.9711 36.7942 58.2391 29.0621 58.2391V57.2391C36.2419 57.2391 42.0622 51.4188 42.0622 44.239ZM4.438 21.2868C4.79608 19.9535 9.41048 20.0313 14.7447 21.4606C20.0793 22.8901 24.1138 25.1299 23.7565 26.4636L22.6256 30.6863L22.1881 30.9031C21.7555 31.1265 21.3351 31.3705 20.9283 31.6335C19.5287 30.5461 16.8348 29.3324 13.5894 28.404L12.9332 28.2224C7.59872 26.793 2.9842 26.7151 2.62647 28.0485L4.438 21.2868ZM43.3796 21.4606C48.7137 20.0314 53.3281 19.9536 53.6863 21.2868L55.4978 28.0485C55.14 26.7152 50.5263 26.7931 45.1921 28.2224L44.5358 28.404C41.2901 29.3324 38.5957 30.546 37.196 31.6335C36.7891 31.3705 36.3688 31.1265 35.9362 30.9031L35.4997 30.6863L34.3678 26.4636C34.0329 25.2133 37.5579 23.1667 42.3952 21.738L43.3796 21.4606ZM7.70853 21.3376C6.81985 21.3226 6.15166 21.3935 5.71828 21.5143C5.52023 21.5696 5.42062 21.6212 5.37551 21.6491L4.15871 26.1901C4.69263 26.116 5.29222 26.0886 5.9302 26.0993C7.89842 26.1325 10.4695 26.5271 13.192 27.2566C16.3954 28.1149 19.2249 29.2831 20.9674 30.4363C21.2323 30.2806 21.5016 30.1315 21.776 29.9909L22.7623 26.3064C22.7364 26.2589 22.6771 26.1645 22.5357 26.0202C22.2209 25.6989 21.6771 25.3042 20.9 24.8728C19.3593 24.0175 17.098 23.1264 14.4859 22.4265C11.874 21.7266 9.4704 21.3673 7.70853 21.3376ZM50.4167 21.3376C48.6548 21.3672 46.2505 21.7265 43.6384 22.4265C41.0264 23.1264 38.7649 24.0175 37.2243 24.8728C36.4473 25.3041 35.9043 25.6989 35.5895 26.0202C35.4467 26.166 35.3865 26.2603 35.361 26.3073L36.3483 29.9909C36.6225 30.1314 36.8913 30.2808 37.1559 30.4363C38.8984 29.2829 41.7292 28.1151 44.9333 27.2566C47.6555 26.5272 50.226 26.1325 52.1941 26.0993C52.8316 26.0886 53.431 26.1161 53.9646 26.1901L52.7478 21.6491C52.7023 21.6211 52.6035 21.5692 52.407 21.5143C51.9737 21.3935 51.3055 21.3227 50.4167 21.3376Z" fill="white"/>
<path fill-rule="evenodd" clip-rule="evenodd" d="M6.06218 50.7391V33.1454C6.37976 33.2913 6.71359 33.436 7.06201 33.5787V50.7391L10.6536 56.9599L10.3169 58.2165L6.56201 51.7128L1.06201 61.2391H0L6.06218 50.7391ZM7.06201 19.342V9.73909L10.5336 7.73909L11.129 5.51685L10.0924 5.23909L9.56201 7.21846L6.06218 9.23909V19.4248C6.36134 19.3812 6.69608 19.3536 7.06201 19.342Z" fill="white"/>
<path fill-rule="evenodd" clip-rule="evenodd" d="M52.062 16.2391H51.062C50.3953 15.9058 46.062 15.2391 43.062 15.2391V14.2391H60.062V15.2391C57.062 15.2391 52.7287 15.9058 52.062 16.2391Z" fill="white"/>
<path fill-rule="evenodd" clip-rule="evenodd" d="M52.062 11.2391H51.062C50.3953 11.5724 46.062 12.2391 43.062 12.2391V13.2391H60.062V12.2391C57.062 12.2391 52.7287 11.5724 52.062 11.2391Z" fill="white"/>
<path fill-rule="evenodd" clip-rule="evenodd" d="M52.062 10.2391H51.062V6.23909H52.062V10.2391Z" fill="white"/>
<path fill-rule="evenodd" clip-rule="evenodd" d="M58.124 61.2391L52.0618 50.7391V33.1456C51.7443 33.2914 51.4104 33.4361 51.062 33.5789V50.7391L47.4704 56.9599L47.8071 58.2165L51.562 51.7128L57.062 61.2391H58.124ZM51.062 19.342C51.4279 19.3536 51.7627 19.3812 52.0618 19.4248V17.2391H51.062V19.342Z" fill="white"/>
</svg>
