<svg width="66" height="61" viewBox="0 0 66 61" fill="none" xmlns="http://www.w3.org/2000/svg">
<path d="M6.29024 29.7954L3.92808 31.0313L1.35663 29.9166L0 27.8802C1.01747 25.1651 4.06989 24.5994 5.42651 24.8257L7.1223 27.5408L6.29024 29.7954Z" fill="white"/>
<path d="M14.911 25.285L12.5488 26.5209L9.97736 25.4061L8.62074 23.3698C9.63821 20.6546 12.6906 20.089 14.0472 20.3153L15.743 23.0304L14.911 25.285Z" fill="white"/>
<path d="M23.7291 20.6713L21.3669 21.9072L18.7955 20.7925L17.4388 18.7561C18.4563 16.041 21.5087 15.4753 22.8653 15.7016L24.5611 18.4167L23.7291 20.6713Z" fill="white"/>
<path d="M32.422 16.1231L30.0599 17.359L27.4884 16.2443L26.1318 14.2079C27.1492 11.4928 30.2017 10.9271 31.5583 11.1534L33.2541 13.8685L32.422 16.1231Z" fill="white"/>
<path fill-rule="evenodd" clip-rule="evenodd" d="M58.9645 19.1996C61.3098 17.1418 66 0 66 0L0 35.3143C0.0310022 35.3474 8.02791 43.901 1.34042 51.7714L17.1012 61C17.2512 60.7098 18.5207 58.2863 19.8375 56.8453L20.1013 56.5716C37.1876 39.7716 47.462 29.7139 58.9645 19.1996ZM1.99503 36.182C1.85431 35.9811 1.71912 35.7979 1.59421 35.6325L64.3444 2.05663C64.3285 2.1117 64.3127 2.16765 64.2967 2.22436C64.2785 2.28908 64.26 2.35479 64.2406 2.42129C63.766 4.0546 63.1093 6.25171 62.3806 8.51038C61.6507 10.7725 60.853 13.0801 60.0975 14.9419C59.7193 15.874 59.3586 16.6765 59.029 17.2986C58.6816 17.9541 58.4256 18.2979 58.2858 18.4208L58.2697 18.435C46.751 28.9639 36.4635 39.0342 19.3792 55.8322C18.5839 56.6142 17.8215 57.7325 17.2583 58.6423C17.0509 58.9775 16.8649 59.2947 16.7075 59.5707L2.87622 51.4724C5.72654 47.4553 5.31431 43.3329 4.14816 40.2215C3.5226 38.5525 2.67773 37.1568 1.99503 36.182Z" fill="white"/>
<path d="M47.337 8.31953L49.6992 7.08363L50.5312 4.82901L48.8355 2.11387C47.4788 1.88761 44.4264 2.45326 43.409 5.1684L44.7656 7.20476L47.337 8.31953Z" fill="white"/>
<path d="M38.4927 12.9469L40.8548 11.711L41.6869 9.45642L39.9911 6.74128C38.6345 6.51502 35.5821 7.08067 34.5646 9.79581L35.9212 11.8322L38.4927 12.9469Z" fill="white"/>
</svg>
