<svg width="102" height="60" viewBox="0 0 102 60" fill="none" xmlns="http://www.w3.org/2000/svg">
<path fill-rule="evenodd" clip-rule="evenodd" d="M88.0625 0.00488281L87.837 0H8.00105L7.71101 0.0078125C6.30079 0.0877043 5.06557 0.747198 4.21394 1.73535L0.811599 7.27051C0.142183 8.29576 -0.158233 9.57265 0.0821068 10.8945L8.26472 55.8945L8.30964 56.1152C8.82632 58.3781 10.8427 60 13.1837 60H93.0196C95.0512 60 96.7602 58.8018 97.5508 57.1182L100.511 52.1992C100.963 51.2793 101.139 50.208 100.939 49.1055L92.7559 4.10547C92.3371 1.80244 90.3812 0.108546 88.0625 0.00488281ZM12.2471 50.7158C12.593 52.6176 14.2497 54 16.1827 54H22.5694L20.3419 41.75H19.5948C18.8699 41.75 18.248 41.2317 18.1182 40.5186L15.8419 28H8.11628L12.2471 50.7158ZM23.0372 39.9814C23.2046 40.9022 22.4974 41.75 21.5616 41.75H21.3594L23.587 54H33.8194L31.5919 41.75H30.8448C30.1199 41.75 29.498 41.2317 29.3682 40.5186L27.0919 28H20.8594L23.0372 39.9814ZM34.2872 39.9814C34.4546 40.9022 33.7474 41.75 32.8116 41.75H32.6094L34.837 54H45.0694L40.3419 28H32.1094L34.2872 39.9814ZM46.087 54H56.3194L54.0919 41.75H53.3458C52.6209 41.75 51.9989 41.2317 51.8692 40.5186L49.5919 28H41.3594L46.087 54ZM56.7872 39.9814C56.9546 40.9022 56.2474 41.75 55.3116 41.75H55.1094L57.337 54H67.5694L65.3418 41.75H64.5958C63.8709 41.75 63.2489 41.2317 63.1192 40.5186L60.8419 28H54.6094L56.7872 39.9814ZM65.8594 28L68.0381 39.9814C68.2056 40.9022 67.4984 41.75 66.5626 41.75H66.3594L68.587 54H78.8194L76.5918 41.75H75.8458C75.1209 41.75 74.4989 41.2317 74.3692 40.5186L72.0918 28H65.8594ZM77.1094 28L79.2881 39.9814C79.4556 40.9022 78.7484 41.75 77.8125 41.75H77.6094L79.837 54H90.0694L85.3418 28H77.1094ZM86.3594 28L91.087 54H96.0186C98.5142 54 100.401 51.7395 99.9541 49.2842L96.085 28H86.3594ZM6.91804 27L11.2637 50.8945C11.6961 53.2718 13.7665 55 16.1827 55H96.0186C96.6771 55 97.3008 54.872 97.8711 54.6445L96.6934 56.6025L96.667 56.6465L96.6455 56.6934C96.0107 58.045 94.6427 59 93.0196 59H13.1837C11.3111 59 9.69749 57.7024 9.28425 55.8926L9.2491 55.7158L1.06648 10.7158C0.873911 9.65668 1.11358 8.63808 1.64949 7.81738L1.65632 7.80566L1.66414 7.79395L5.01765 2.33594C5.69452 1.57728 6.65411 1.07426 7.74714 1.00684L8.02839 1H87.8155L88.0245 1.00391C89.8759 1.08969 91.4378 2.44398 91.7725 4.28418L95.9034 27H6.91804Z" fill="white"/>
</svg>
